<svg width="20" height="16" viewBox="0 0 20 16" fill="none" xmlns="http://www.w3.org/2000/svg">
<path d="M18.1 7.13301H4.073L8.9 2.48001C8.98321 2.40106 9.04948 2.30599 9.09476 2.20061C9.14005 2.09522 9.1634 1.98171 9.1634 1.86701C9.1634 1.7523 9.14005 1.6388 9.09476 1.53341C9.04948 1.42802 8.98321 1.33296 8.9 1.25401C8.72826 1.09081 8.50041 0.999817 8.2635 0.999817C8.02659 0.999817 7.79873 1.09081 7.627 1.25401L1.264 7.38701C1.2224 7.42721 1.18489 7.47142 1.152 7.51901C1.137 7.54101 1.126 7.56401 1.112 7.58701C1.098 7.61401 1.081 7.64001 1.069 7.66801C1.056 7.69801 1.049 7.72801 1.04 7.75801C1.033 7.78201 1.023 7.80501 1.018 7.83001C1.00621 7.88591 1.00018 7.94288 1 8.00001V8.00201C1 8.05801 1.006 8.11401 1.018 8.17001C1.023 8.19601 1.033 8.22001 1.041 8.24501C1.05 8.27501 1.057 8.30401 1.069 8.33201C1.082 8.36201 1.099 8.38901 1.116 8.41701C1.128 8.43901 1.138 8.46001 1.151 8.48101C1.184 8.52901 1.222 8.57301 1.264 8.61401L7.628 14.746C7.79968 14.9089 8.02733 14.9997 8.264 14.9997C8.50067 14.9997 8.72832 14.9089 8.9 14.746C8.98324 14.667 9.04953 14.5718 9.09482 14.4664C9.14012 14.3609 9.16348 14.2473 9.16348 14.1325C9.16348 14.0177 9.14012 13.9041 9.09482 13.7987C9.04953 13.6932 8.98324 13.598 8.9 13.519L4.073 8.86701H18.1C18.597 8.86701 19 8.47901 19 8.00001C19 7.52101 18.597 7.13301 18.1 7.13301Z" fill="#B7BECB" stroke="#B7BECB" stroke-width="0.5"/>
</svg>
