<svg width="14" height="14" viewBox="0 0 14 14" fill="none" xmlns="http://www.w3.org/2000/svg">
<path fill-rule="evenodd" clip-rule="evenodd" d="M0.838036 1.17007C1.06479 0.943311 1.43244 0.943311 1.65919 1.17007L6.66797 6.17884L11.6767 1.17007C11.9035 0.943311 12.2711 0.943311 12.4979 1.17007C12.7247 1.39682 12.7247 1.76447 12.4979 1.99122L7.48912 7L12.4979 12.0088C12.7247 12.2355 12.7247 12.6032 12.4979 12.8299C12.2711 13.0567 11.9035 13.0567 11.6767 12.8299L6.66797 7.82116L1.65919 12.8299C1.43244 13.0567 1.06479 13.0567 0.838036 12.8299C0.61128 12.6032 0.61128 12.2355 0.838036 12.0088L5.84681 7L0.838036 1.99122C0.61128 1.76447 0.61128 1.39682 0.838036 1.17007Z" fill="white" stroke="white" stroke-linecap="round" stroke-linejoin="round"/>
</svg>
