<svg width="12" height="12" viewBox="0 0 12 12" fill="none" xmlns="http://www.w3.org/2000/svg">
<path opacity="0.7" fill-rule="evenodd" clip-rule="evenodd" d="M11.5591 9.55052L8.03366 6.0189L11.5591 2.48728C11.6965 2.35564 11.8063 2.19783 11.882 2.02312C11.9577 1.8484 11.9978 1.6603 11.9999 1.46986C12.0021 1.27941 11.9662 1.09045 11.8945 0.914066C11.8227 0.737684 11.7166 0.577431 11.5822 0.442712C11.4478 0.307992 11.2879 0.201519 11.1118 0.129541C10.9358 0.0575634 10.7472 0.0215301 10.5571 0.023556C10.367 0.0255818 10.1792 0.0656259 10.0047 0.141338C9.83026 0.217051 9.67265 0.326907 9.54115 0.46446L6.01437 4.00274L2.44505 0.420515C2.17657 0.151389 1.81237 0.000124943 1.43255 7.73665e-08C1.05274 -0.000124788 0.688436 0.150899 0.41978 0.419849C0.151124 0.688798 0.000124732 1.05364 7.72412e-08 1.43412C-0.000124578 1.8146 0.150636 2.17954 0.419115 2.44867L3.99508 6.02556L0.461655 9.55984C0.194056 9.82791 0.0437213 10.1915 0.0437213 10.5706C0.0437213 10.9497 0.194056 11.3133 0.461655 11.5813C0.729253 11.8494 1.09219 12 1.47063 12C1.84908 12 2.21202 11.8494 2.47961 11.5813L6.00772 8.04705L9.53317 11.58C9.80415 11.8376 10.1648 11.979 10.5384 11.9741C10.9119 11.9692 11.2688 11.8184 11.5329 11.5538C11.7971 11.2892 11.9476 10.9317 11.9525 10.5575C11.9574 10.1833 11.8163 9.82197 11.5591 9.55052Z" fill="#B7BECB"/>
</svg>
