<svg width="34" height="30" viewBox="0 0 34 30" fill="none" xmlns="http://www.w3.org/2000/svg">
<g opacity="0.5" clip-path="url(#clip0)">
<path opacity="0.9" fill-rule="evenodd" clip-rule="evenodd" d="M9.6614 6C11.3182 6 12.6614 4.65685 12.6614 3C12.6614 1.34315 11.3182 0 9.6614 0C8.00452 0 6.66138 1.34315 6.66138 3C6.66138 4.65685 8.00452 6 9.6614 6ZM16.6341 18C18.291 18 19.6341 16.6568 19.6341 15C19.6341 13.3432 18.291 12 16.6341 12C14.9773 12 13.6341 13.3432 13.6341 15C13.6341 16.6568 14.9773 18 16.6341 18Z" fill="white"/>
<path opacity="0.7" fill-rule="evenodd" clip-rule="evenodd" d="M26.368 3C26.368 4.65685 25.0249 6 23.368 6C21.7112 6 20.368 4.65685 20.368 3C20.368 1.34315 21.7112 0 23.368 0C25.0249 0 26.368 1.34315 26.368 3ZM33.375 15C33.375 16.6568 32.0318 18 30.375 18C28.7182 18 27.375 16.6568 27.375 15C27.375 13.3432 28.7182 12 30.375 12C32.0318 12 33.375 13.3432 33.375 15ZM9.879 30C11.5358 30 12.879 28.6568 12.879 27C12.879 25.3432 11.5358 24 9.879 24C8.22217 24 6.87903 25.3432 6.87903 27C6.87903 28.6568 8.22217 30 9.879 30ZM6 15C6 16.6568 4.65685 18 3 18C1.34315 18 0 16.6568 0 15C0 13.3432 1.34315 12 3 12C4.65685 12 6 13.3432 6 15ZM23.6067 30C25.2636 30 26.6067 28.6568 26.6067 27C26.6067 25.3432 25.2636 24 23.6067 24C21.9499 24 20.6067 25.3432 20.6067 27C20.6067 28.6568 21.9499 30 23.6067 30Z" fill="white"/>
<path opacity="0.4" fill-rule="evenodd" clip-rule="evenodd" d="M22.8904 5.96218C22.3317 5.87279 21.8245 5.62914 21.4139 5.2763L17.4647 12.1164C18.0013 12.2708 18.4763 12.5707 18.8438 12.971L22.8904 5.96218ZM20.4883 2.15625H12.541C12.6193 2.4239 12.6613 2.70705 12.6613 3C12.6613 3.26903 12.6259 3.52979 12.5595 3.77787H20.4698C20.4035 3.52979 20.368 3.26903 20.368 3C20.368 2.70705 20.41 2.4239 20.4883 2.15625ZM29.7071 17.9254C29.1604 17.8011 28.6704 17.5275 28.2824 17.1497L24.2832 24.0766C24.8294 24.2025 25.3185 24.4775 25.7055 24.8564L29.7071 17.9254ZM27.4953 14.1562H19.5138C19.5921 14.4239 19.6341 14.707 19.6341 15C19.6341 15.2691 19.5986 15.5298 19.5322 15.7778H27.4768C27.4104 15.5298 27.375 15.2691 27.375 15C27.375 14.707 27.417 14.4239 27.4953 14.1562ZM11.9955 24.8738L16.0026 17.9334C15.4536 17.8158 14.9603 17.548 14.5679 17.1751L10.58 24.0823C11.1247 24.2127 11.6116 24.4916 11.9955 24.8738ZM9.15092 24.089C8.60798 24.2243 8.12356 24.5077 7.74295 24.8935L3.71365 17.9146C4.2575 17.7819 4.74324 17.501 5.12564 17.117L9.15092 24.089Z" fill="white"/>
</g>
<defs>
<clipPath id="clip0">
<rect width="33.375" height="30" fill="white"/>
</clipPath>
</defs>
</svg>
