<svg width="34" height="30" viewBox="0 0 34 30" fill="none" xmlns="http://www.w3.org/2000/svg">
<path fill-rule="evenodd" clip-rule="evenodd" d="M22.2789 3.77787H9.19683V2.15625H23.1422V2.73345L24.3514 3.43156L18.1595 14.1562H30.3641V15.1101L31.0904 15.5293L23.9454 27.9049L22.5411 27.094L29.0744 15.7778H17.2471L10.3862 27.6613L9.95728 27.4136L9.38775 27.7425L2.24277 15.367L3.64713 14.5562L9.86353 25.3233L15.8198 15.0066L15.802 14.9963L22.2789 3.77787Z" fill="#126685"/>
<path fill-rule="evenodd" clip-rule="evenodd" d="M9.66131 6C11.3182 6 12.6613 4.65685 12.6613 3C12.6613 1.34315 11.3182 0 9.66131 0C8.00443 0 6.66129 1.34315 6.66129 3C6.66129 4.65685 8.00443 6 9.66131 6ZM16.6341 18C18.2909 18 19.6341 16.6568 19.6341 15C19.6341 13.3432 18.2909 12 16.6341 12C14.9772 12 13.6341 13.3432 13.6341 15C13.6341 16.6568 14.9772 18 16.6341 18Z" fill="#0059FF"/>
<path fill-rule="evenodd" clip-rule="evenodd" d="M26.368 3C26.368 4.65685 25.0249 6 23.368 6C21.7112 6 20.368 4.65685 20.368 3C20.368 1.34315 21.7112 0 23.368 0C25.0249 0 26.368 1.34315 26.368 3ZM33.375 15C33.375 16.6568 32.0318 18 30.375 18C28.7182 18 27.375 16.6568 27.375 15C27.375 13.3432 28.7182 12 30.375 12C32.0318 12 33.375 13.3432 33.375 15ZM9.879 30C11.5358 30 12.879 28.6568 12.879 27C12.879 25.3432 11.5358 24 9.879 24C8.22218 24 6.87903 25.3432 6.87903 27C6.87903 28.6568 8.22218 30 9.879 30ZM6 15C6 16.6568 4.65685 18 3 18C1.34315 18 0 16.6568 0 15C0 13.3432 1.34315 12 3 12C4.65685 12 6 13.3432 6 15ZM23.6067 30C25.2636 30 26.6067 28.6568 26.6067 27C26.6067 25.3432 25.2636 24 23.6067 24C21.9499 24 20.6067 25.3432 20.6067 27C20.6067 28.6568 21.9499 30 23.6067 30Z" fill="#19E1FF"/>
</svg>
