<svg width="16" height="16" viewBox="0 0 16 16" fill="none" xmlns="http://www.w3.org/2000/svg">
<path opacity="0.7" d="M12.0192 0.676123C12.2328 0.461766 12.4865 0.291728 12.7656 0.175718C13.0448 0.0597093 13.3439 2.25862e-09 13.6461 0C13.9482 -2.25862e-09 14.2474 0.0597093 14.5266 0.175718C14.8057 0.291728 15.0593 0.461766 15.273 0.676123C15.4866 0.89048 15.6561 1.14496 15.7717 1.42503C15.8873 1.7051 15.9468 2.00528 15.9468 2.30843C15.9468 2.61157 15.8873 2.91175 15.7717 3.19182C15.6561 3.4719 15.4866 3.72638 15.273 3.94074L4.37228 14.8778C4.31935 14.9309 4.25352 14.9692 4.18131 14.989L0.543761 15.9843C0.222679 16.0722 -0.0719367 15.7766 0.0156307 15.4545L1.00769 11.8047C1.02739 11.7323 1.06558 11.6662 1.11851 11.6132L12.0192 0.676123Z" fill="#B7BECB"/>
</svg>
