<svg width="105" height="32" viewBox="0 0 105 32" fill="none" xmlns="http://www.w3.org/2000/svg">
<rect x="0.500488" y="0.5" width="104" height="31" rx="7.5" fill="#151D30"/>
<path d="M14.0005 22H22.0005" stroke="#EFF3FB" stroke-linecap="round" stroke-linejoin="round"/>
<path d="M18.0005 10L18.0005 19.3333" stroke="#EFF3FB" stroke-linecap="round" stroke-linejoin="round"/>
<path d="M21.3339 16L18.0006 19.3333L14.6672 16" stroke="#EFF3FB" stroke-linecap="round" stroke-linejoin="round"/>
<path d="M40.1805 20V19.112H35.9325V16.352H40.0965V15.464H35.9325V12.884H40.1805V11.996H34.9365V20H40.1805ZM46.5325 20L44.3005 17.024L46.4005 14.204H45.3565L43.7485 16.412L42.1405 14.204H41.0965L43.1965 17.024L40.9765 20H42.0085L43.7485 17.624L45.4885 20H46.5325ZM50.4245 20.144C51.9485 20.144 53.0045 18.968 53.0045 17.096C53.0045 15.212 51.9485 14.06 50.4245 14.06C49.6085 14.06 48.8885 14.48 48.4685 15.068V14.204H47.5685V22.208H48.4685V19.124C48.9365 19.772 49.6325 20.144 50.4245 20.144ZM50.1965 19.34C49.4885 19.34 48.7805 18.908 48.4685 18.404V15.788C48.7805 15.284 49.4885 14.864 50.1965 14.864C51.3605 14.864 52.0565 15.812 52.0565 17.096C52.0565 18.38 51.3605 19.34 50.1965 19.34ZM56.9676 20.144C58.7316 20.144 59.8356 18.776 59.8356 17.096C59.8356 15.416 58.7316 14.06 56.9676 14.06C55.2036 14.06 54.0996 15.416 54.0996 17.096C54.0996 18.776 55.2036 20.144 56.9676 20.144ZM56.9676 19.34C55.7316 19.34 55.0356 18.284 55.0356 17.096C55.0356 15.92 55.7316 14.864 56.9676 14.864C58.2036 14.864 58.8876 15.92 58.8876 17.096C58.8876 18.284 58.2036 19.34 56.9676 19.34ZM62.2028 20V15.896C62.4668 15.428 63.2228 14.972 63.7748 14.972C63.9188 14.972 64.0268 14.984 64.1348 15.008V14.084C63.3428 14.084 62.6708 14.528 62.2028 15.14V14.204H61.3028V20H62.2028ZM66.7278 20.144C67.2558 20.144 67.5798 19.988 67.8078 19.772L67.5438 19.1C67.4238 19.232 67.1838 19.34 66.9318 19.34C66.5358 19.34 66.3438 19.028 66.3438 18.596V14.996H67.5198V14.204H66.3438V12.62H65.4438V14.204H64.4838V14.996H65.4438V18.788C65.4438 19.652 65.8758 20.144 66.7278 20.144ZM75.7129 20.144C77.1289 20.144 78.0889 19.472 78.7609 18.56L77.9089 18.092C77.4529 18.776 76.6249 19.256 75.7129 19.256C73.9609 19.256 72.6289 17.9 72.6289 16.004C72.6289 14.096 73.9609 12.752 75.7129 12.752C76.6249 12.752 77.4529 13.244 77.9089 13.916L78.7489 13.448C78.1129 12.548 77.1289 11.864 75.7129 11.864C73.4089 11.864 71.5969 13.544 71.5969 16.004C71.5969 18.464 73.4089 20.144 75.7129 20.144ZM82.6222 20.144C84.7822 20.144 85.5742 18.956 85.5742 17.792C85.5742 14.804 80.8342 15.836 80.8342 14.036C80.8342 13.28 81.5182 12.764 82.4782 12.764C83.3542 12.764 84.1942 13.064 84.7942 13.724L85.3942 12.992C84.7222 12.284 83.7742 11.876 82.5502 11.876C80.9782 11.876 79.8022 12.776 79.8022 14.096C79.8022 16.952 84.5422 15.812 84.5422 17.876C84.5422 18.488 84.0862 19.256 82.6582 19.256C81.5302 19.256 80.6662 18.704 80.1382 18.116L79.5502 18.872C80.2102 19.616 81.2302 20.144 82.6222 20.144ZM90.6855 20L93.9135 11.996H92.7735L90.0735 18.908L87.3735 11.996H86.2335L89.4495 20H90.6855Z" fill="#EFF3FB"/>
<rect x="0.500488" y="0.5" width="104" height="31" rx="7.5" stroke="#232F46"/>
</svg>
