<svg width="28" height="30" viewBox="0 0 28 30" fill="none" xmlns="http://www.w3.org/2000/svg">
<g opacity="0.5">
<path opacity="0.9" fill-rule="evenodd" clip-rule="evenodd" d="M0.64266 7.34786C0.245478 7.57293 0 7.99418 0 8.4507V11.5148C0 11.9815 0.378351 12.3599 0.845069 12.3599H27.0422C27.5089 12.3599 27.8873 11.9815 27.8873 11.5148V8.4507C27.8873 7.99419 27.6418 7.57293 27.2446 7.34786L14.5686 0.16476C14.1809 -0.0549199 13.7064 -0.0549202 13.3187 0.16476L0.64266 7.34786ZM1.2676 23.9577C0.567526 23.9577 0 24.5253 0 25.2254V29.1549C0 29.6217 0.378351 30 0.845069 30H27.0422C27.5089 30 27.8873 29.6217 27.8873 29.1549V25.2254C27.8873 24.5253 27.3197 23.9577 26.6197 23.9577H13.9437H1.2676Z" fill="#0D1FFF"/>
<path opacity="0.7" fill-rule="evenodd" clip-rule="evenodd" d="M19.8696 12.3599H24.6337V23.9577H19.8696V12.3599ZM11.6198 12.3599H16.3839V23.9577H13.9437H11.6198V12.3599ZM3.36974 12.3599H8.13382V23.9577H3.36974V12.3599Z" fill="#058DAD"/>
</g>
</svg>
