<svg width="30" height="30" viewBox="0 0 30 30" fill="none" xmlns="http://www.w3.org/2000/svg">
<g clip-path="url(#clip0)">
<path d="M0 27.7859V15.4635C0 13.9021 0.618414 12.4045 1.71994 11.298L11.6578 1.3155C12.5232 0.446184 13.6596 6.19412e-07 14.7959 0C15.9322 -6.19412e-07 17.0687 0.446182 17.9341 1.3155L27.8719 11.298C28.9735 12.4045 29.5918 13.9021 29.5918 15.4635V27.7859C29.5918 29.0088 28.6006 30 27.3778 30H2.21405C0.991263 30 0 29.0088 0 27.7859Z" fill="#0D1FFF"/>
<path d="M10.4082 18.2108C10.4082 17.3956 11.069 16.7347 11.8842 16.7347H17.7076C18.5229 16.7347 19.1837 17.3956 19.1837 18.2108V30H10.4082V18.2108Z" fill="#05D9FF"/>
<path d="M21.6327 1.47603C21.6327 0.660841 22.2935 0 23.1087 0H25.2587C26.0739 0 26.7347 0.660841 26.7347 1.47603V10.7689C26.7347 11.5841 26.0739 12.2449 25.2587 12.2449H23.1087C22.2935 12.2449 21.6327 11.5841 21.6327 10.7689V1.47603Z" fill="#058DAD"/>
<path d="M21.6327 5.03076L26.7347 10.1557V10.7689C26.7347 11.5841 26.0739 12.2449 25.2587 12.2449H23.1087C22.2935 12.2449 21.6327 11.5841 21.6327 10.7689V5.03076Z" fill="#05D9FF"/>
</g>
<defs>
<clipPath id="clip0">
<rect width="29.5918" height="30" fill="white"/>
</clipPath>
</defs>
</svg>
