<svg width="30" height="30" viewBox="0 0 30 30" fill="none" xmlns="http://www.w3.org/2000/svg">
<g opacity="0.5">
<path opacity="0.7" d="M21.2236 1.44812C21.2236 0.648345 21.8719 0 22.6717 0H24.781C25.5808 0 26.2291 0.648345 26.2291 1.44812V10.5652C26.2291 11.365 25.5808 12.0133 24.781 12.0133H22.6717C21.8719 12.0133 21.2236 11.365 21.2236 10.5652V1.44812Z" fill="#B7BECB"/>
<path opacity="0.7" d="M10.2113 17.8664C10.2113 17.0666 10.8597 16.4182 11.6595 16.4182H17.3728C18.1726 16.4182 18.8209 17.0666 18.8209 17.8664V29.4327H10.2113V17.8664Z" fill="#B7BECB"/>
<path opacity="0.7" d="M0 27.2605V15.1711C0 13.6393 0.60672 12.1699 1.68741 11.0843L11.4373 1.29062C12.2864 0.437746 13.4013 6.07698e-07 14.5161 0C15.631 -6.07699e-07 16.7459 0.437744 17.5949 1.29062L27.3449 11.0843C28.4256 12.1699 29.0323 13.6393 29.0323 15.1711V27.2605C29.0323 28.4602 28.0598 29.4327 26.86 29.4327H2.17218C0.972519 29.4327 0 28.4602 0 27.2605Z" fill="#B7BECB"/>
</g>
</svg>
