<svg width="84" height="78" viewBox="0 0 84 78" fill="none" xmlns="http://www.w3.org/2000/svg">
<path d="M80.6927 50.9598C80.4741 51.3387 80.1452 51.6577 79.7272 51.8644L74.8034 54.299C74.1185 54.6377 73.3097 54.6117 72.6479 54.2296L44.395 37.9177C41.9229 39.783 39.0148 40.9505 35.8928 41.3183C32.1246 41.7624 28.3914 40.9918 25.0971 39.0898C16.731 34.2596 13.8545 23.5238 18.6845 15.1577C23.5146 6.79157 34.2506 3.91501 42.6167 8.74507C45.911 10.6471 48.4449 13.4947 49.9444 16.9802C51.1869 19.8678 51.6298 22.97 51.2505 26.0436L61.7529 32.1071L66.5439 31.7982C67.4646 31.7388 68.3306 32.2388 68.7394 33.0657L70.4988 36.624L74.46 36.3685C75.4699 36.3034 76.4024 36.9102 76.7517 37.8601L80.8592 49.027C81.1012 49.6855 81.0216 50.3901 80.6927 50.9598Z" fill="#00DEFF"/>
<path d="M55.3285 70.7527C54.9498 70.9715 54.5054 71.0835 54.04 71.0534L48.5585 70.7C47.796 70.6508 47.1085 70.2238 46.7265 69.5622L30.4146 41.3091C27.3411 41.6884 24.2389 41.2456 21.3513 40.0031C17.8658 38.5035 15.0182 35.9696 13.1162 32.6753C8.28611 24.3092 11.1627 13.5734 19.5288 8.74319C27.8949 3.91298 38.6307 6.78968 43.4609 15.1558C45.3629 18.4501 46.1335 22.1831 45.6894 25.9515C45.3215 29.0735 44.1541 31.9816 42.2888 34.4536L48.3524 44.9561L52.6561 47.084C53.483 47.4929 53.983 48.359 53.9236 49.2794L53.6681 53.2407L57.2264 55.0001C58.1336 55.4487 58.6376 56.4405 58.4652 57.4376L56.4389 69.1623C56.3193 69.8533 55.8981 70.4238 55.3285 70.7527Z" fill="#1969FF"/>
<path d="M20.5182 78C20.0808 78 19.6399 77.8748 19.2519 77.6161L14.6816 74.5692C14.046 74.1456 13.6641 73.432 13.6641 72.668V40.0442C10.8126 38.8359 8.34757 36.9013 6.46795 34.3814C4.19925 31.3402 3 27.7218 3 23.918C3 14.2577 10.8593 6.39844 20.5195 6.39844C30.1798 6.39844 38.0391 14.2577 38.0391 23.918C38.0391 27.7218 36.8398 31.3402 34.5711 34.3815C32.6915 36.9015 30.2264 38.8361 27.375 40.0443V52.1715L30.0381 56.1661C30.5498 56.9336 30.5498 57.9337 30.0381 58.7012L27.8363 62.0039L30.0381 65.3067C30.5995 66.1487 30.5401 67.2598 29.8922 68.0372L22.275 77.1778C21.826 77.7166 21.1761 78 20.5182 78Z" fill="#00DEFF"/>
<path d="M22.2751 77.1778L29.8923 68.0372C30.5401 67.2598 30.5995 66.1487 30.0383 65.3067L27.8363 62.0039L30.0381 58.7011C30.5498 57.9336 30.5498 56.9334 30.0381 56.1659L27.375 52.1713V40.0442C30.2264 38.8359 32.6915 36.9013 34.5711 34.3814C36.84 31.3402 38.0391 27.7218 38.0391 23.918C38.0391 14.2577 30.1798 6.39844 20.5195 6.39844V78C21.177 77.9995 21.8263 77.7163 22.2751 77.1778Z" fill="#00DEFF"/>
<path d="M18.2344 17.8242V2.28516C18.2344 1.02314 19.2575 0 20.5195 0C21.7815 0 22.8047 1.02314 22.8047 2.28516V17.8242H18.2344Z" fill="#00337A"/>
<path d="M22.8047 17.8242V2.28516C22.8047 1.02314 21.7815 0 20.5195 0V17.8242H22.8047Z" fill="#002659"/>
<path d="M23.5664 20.1094H17.4727C16.2106 20.1094 15.1875 19.0862 15.1875 17.8242C15.1875 16.5622 16.2106 15.5391 17.4727 15.5391H23.5664C24.8284 15.5391 25.8516 16.5622 25.8516 17.8242C25.8516 19.0862 24.8284 20.1094 23.5664 20.1094Z" fill="#00429B"/>
<path d="M23.5664 15.5391H20.5195V20.1094H23.5664C24.8284 20.1094 25.8516 19.0862 25.8516 17.8242C25.8516 16.5622 24.8284 15.5391 23.5664 15.5391Z" fill="#00337A"/>
</svg>
