<svg width="20" height="20" viewBox="0 0 20 20" fill="none" xmlns="http://www.w3.org/2000/svg">
<path d="M2.40219 10.9222C2.36359 10.6006 2.34375 10.2811 2.34375 10C2.34375 5.8046 5.8046 2.34375 10 2.34375C11.9569 2.34375 13.7891 3.13278 15.1367 4.36325L14.4609 5.05081C14.3086 5.20309 14.25 5.42572 14.3086 5.63675C14.379 5.83588 14.543 5.98831 14.7539 6.03516C14.8718 6.05881 18.7466 7.30743 18.4999 7.25784C18.8138 7.36237 19.278 7.02759 19.1914 6.56647C19.1676 6.44836 18.3098 2.14401 18.3594 2.39059C18.3125 2.17972 18.1601 2.00394 17.9492 1.94534C17.7501 1.88675 17.5273 1.94534 17.375 2.09763L16.8008 2.66006C15.0313 1.00784 12.6015 0 10 0C4.50394 0 0 4.50394 0 10V10.0233C0 10.3537 0.0151062 10.609 0.0326538 10.8043C0.0559998 11.0631 0.246735 11.275 0.501556 11.3261L1.70532 11.5668C2.09717 11.6452 2.44949 11.3167 2.40219 10.9222Z" fill="#19E1FF"/>
<path d="M19.5022 8.67308L18.2949 8.42711C17.9026 8.34715 17.5478 8.67598 17.596 9.07225C17.6378 9.4142 17.6565 9.74669 17.6565 10.0001C17.6565 14.1954 14.1956 17.6564 10.0002 17.6564C8.04326 17.6564 6.21114 16.8674 4.86348 15.6252L5.5393 14.9493C5.69158 14.7971 5.75017 14.5744 5.69158 14.3634C5.62123 14.1641 5.4572 14.0118 5.24633 13.965C5.12838 13.9412 1.25356 12.6927 1.50029 12.7423C1.30101 12.7072 1.10173 12.7658 0.97295 12.9063C0.832264 13.0353 0.77367 13.2462 0.808765 13.4337C0.832569 13.5516 1.69057 17.8169 1.64098 17.5704C1.68767 17.7814 1.84011 17.9572 2.05098 18.0156C2.29558 18.077 2.49974 18.0028 2.62517 17.8633L3.18776 17.3009C4.95717 18.9533 7.38698 20.0002 10.0002 20.0002C15.4963 20.0002 20.0002 15.4962 20.0002 10.0001V9.96489C20.0002 9.70519 19.9907 9.45021 19.9691 9.19676C19.9468 8.93782 19.7568 8.72511 19.5022 8.67308Z" fill="#19E1FF"/>
</svg>
