<svg width="30" height="30" viewBox="0 0 30 30" fill="none" xmlns="http://www.w3.org/2000/svg">
<g opacity="0.5" clip-path="url(#clip0)">
<g style="mix-blend-mode:color-dodge" opacity="0.9">
<g style="mix-blend-mode:color-dodge" opacity="0.9">
<path d="M20.2038 3.6456H0.427997C0.191621 3.6456 0 3.83681 0 4.07266V10.2845C0 10.5203 0.191621 10.7115 0.427997 10.7115H20.2038V13.9293C20.2038 14.282 20.6082 14.4827 20.8902 14.2698L29.8303 7.51911C30.0566 7.34823 30.0566 7.00891 29.8303 6.83803L20.8902 0.0872993C20.6082 -0.125576 20.2038 0.075075 20.2038 0.427842V3.6456Z" fill="white"/>
</g>
</g>
<path opacity="0.6" d="M9.79616 19.2885H29.572C29.8085 19.2885 30 19.4796 30 19.7155V25.9272C30 26.1632 29.8085 26.3543 29.572 26.3543H9.79616V29.5721C9.79616 29.9248 9.39181 30.1255 9.10989 29.9126L0.169757 23.1619C-0.0565451 22.9911 -0.0565451 22.6517 0.169757 22.4809L9.10989 15.7301C9.39181 15.5172 9.79616 15.7179 9.79616 16.0706V19.2885Z" fill="white"/>
</g>
<defs>
<clipPath id="clip0">
<rect width="30" height="30" fill="white"/>
</clipPath>
</defs>
</svg>
