<svg width="30" height="30" viewBox="0 0 30 30" fill="none" xmlns="http://www.w3.org/2000/svg">
<g clip-path="url(#clip0)">
<path d="M20.2038 3.6456H0.427997C0.191621 3.6456 0 3.83681 0 4.07266V10.2845C0 10.5203 0.191621 10.7115 0.427997 10.7115H20.2038V13.9293C20.2038 14.282 20.6082 14.4827 20.8902 14.2698L29.8303 7.51911C30.0566 7.34823 30.0566 7.00891 29.8303 6.83803L20.8902 0.0872993C20.6082 -0.125576 20.2038 0.075075 20.2038 0.427842V3.6456Z" fill="#0D1FFF"/>
<path d="M9.79615 19.2885H29.572C29.8084 19.2885 30 19.4796 30 19.7156V25.9273C30 26.1632 29.8084 26.3544 29.572 26.3544H9.79615V29.5722C9.79615 29.9249 9.39179 30.1256 9.10988 29.9127L0.169743 23.1619C-0.0565605 22.9911 -0.0565605 22.6517 0.169743 22.4809L9.10988 15.7302C9.39179 15.5173 9.79615 15.718 9.79615 16.0707V19.2885Z" fill="#19E1FF"/>
</g>
<defs>
<clipPath id="clip0">
<rect width="30" height="30" fill="white"/>
</clipPath>
</defs>
</svg>
