<svg width="30" height="30" viewBox="0 0 30 30" fill="none" xmlns="http://www.w3.org/2000/svg">
<g clip-path="url(#clip0)">
<path d="M15 30C23.2843 30 30 23.2843 30 15C30 6.71573 23.2843 0 15 0C6.71573 0 0 6.71573 0 15C0 23.2843 6.71573 30 15 30Z" fill="#0E17FF"/>
<path d="M1.32149 8.83481C1.73616 7.91624 2.24064 7.04692 2.82374 6.23804L7.53797 8.9598C6.90984 9.73481 6.40002 10.6096 6.03597 11.5568L1.32149 8.83481Z" fill="#097CFF"/>
<path d="M2.82372 23.7621C2.24063 22.9532 1.73615 22.0839 1.32147 21.1653L6.03596 18.4434C6.4 19.3905 6.90983 20.2653 7.53795 21.0403L2.82372 23.7621Z" fill="#097CFF"/>
<path d="M16.5 29.9259C16.0066 29.9749 15.5062 30 15 30C14.4937 30 13.9933 29.9749 13.5 29.9259V24.4835C13.9887 24.5602 14.4897 24.6 15 24.6C15.5102 24.6 16.0112 24.5602 16.5 24.4835V29.9259Z" fill="#097CFF"/>
<path d="M28.6785 21.1653C28.2638 22.0839 27.7593 22.9532 27.1762 23.7621L22.462 21.0403C23.0901 20.2653 23.5999 19.3905 23.964 18.4434L28.6785 21.1653Z" fill="#097CFF"/>
<path d="M27.1762 6.23804C27.7593 7.04692 28.2638 7.91625 28.6785 8.83482L23.964 11.5567C23.5999 10.6096 23.0901 9.73481 22.462 8.9598L27.1762 6.23804Z" fill="#097CFF"/>
<path d="M16.5 0.0740639C16.0066 0.0250795 15.5062 0 15 0C14.4937 0 13.9933 0.0250788 13.5 0.0740617V5.5165C13.9887 5.43981 14.4897 5.4 15 5.4C15.5102 5.4 16.0112 5.43981 16.5 5.5165V0.0740639Z" fill="#097CFF"/>
<path d="M15 24.6C20.3019 24.6 24.6 20.302 24.6 15C24.6 9.69809 20.3019 5.40002 15 5.40002C9.69806 5.40002 5.39999 9.69809 5.39999 15C5.39999 20.302 9.69806 24.6 15 24.6Z" fill="#05D9FF"/>
</g>
<defs>
<clipPath id="clip0">
<rect width="30" height="30" fill="white"/>
</clipPath>
</defs>
</svg>
