<svg width="13" height="16" viewBox="0 0 13 16" fill="none" xmlns="http://www.w3.org/2000/svg">
<path fill-rule="evenodd" clip-rule="evenodd" d="M4.1674 15.8326C4.3906 16.0558 4.7524 16.0558 4.9755 15.8326C5.1987 15.6095 5.1987 15.2477 4.9755 15.0245L1.951 12H12C12.3156 12 12.5714 11.7442 12.5714 11.4286C12.5714 11.113 12.3156 10.8571 12 10.8571H1.951L4.9755 7.8326C5.1987 7.6095 5.1987 7.2477 4.9755 7.0245C4.7524 6.8014 4.3906 6.8014 4.1674 7.0245L0.1674 11.0245C-0.0558 11.2477 -0.0558 11.6095 0.1674 11.8326L4.1674 15.8326ZM7.5959 8.9755C7.3728 8.7523 7.3728 8.3905 7.5959 8.1674L10.6205 5.1429H0.5714C0.2558 5.1429 0 4.887 0 4.5714C0 4.2558 0.2558 4 0.5714 4H10.6205L7.5959 0.9755C7.3728 0.752299 7.3728 0.3905 7.5959 0.1674C7.8191 -0.0557995 8.1809 -0.0557995 8.4041 0.1674L12.4041 4.1674C12.6272 4.3905 12.6272 4.7523 12.4041 4.9755L8.4041 8.9755C8.1809 9.1987 7.8191 9.1987 7.5959 8.9755Z" fill="#B7BECB"/>
</svg>
