<svg width="84" height="78" viewBox="0 0 84 78" fill="none" xmlns="http://www.w3.org/2000/svg">
<g clip-path="url(#clip0)">
<path d="M57.6829 60.9399L19.7935 77.0529C13.5277 79.7175 6.54644 75.1257 6.54643 68.3399L6.54641 25.7266C6.54641 21.9589 8.79806 18.5588 12.2753 17.0755L50.1647 0.913173C56.4316 -1.76009 63.4213 2.83178 63.4213 9.62209L63.4214 52.2847C63.4214 56.0561 61.1652 59.4589 57.6829 60.9399Z" fill="#00DEFF"/>
<rect opacity="0.8" x="6.54688" y="30.4668" width="71.5118" height="47.3384" rx="9.46768" fill="#0059FF"/>
<path opacity="0.8" d="M16.0813 30.4665C10.8153 30.4665 6.54641 34.7053 6.54641 39.9342V25.7326C6.52029 24.5492 6.8468 23.3657 6.8468 23.3657C7.90528 27.4492 11.6384 30.4665 16.0813 30.4665Z" fill="#0059FF"/>
<ellipse cx="62.389" cy="54.1365" rx="5.95932" ry="5.9173" fill="#1F212A"/>
</g>
<defs>
<clipPath id="clip0">
<rect width="84" height="78" fill="white"/>
</clipPath>
</defs>
</svg>
