<?xml version="1.0" encoding="UTF-8"?>
<svg width="109px" height="50px" viewBox="0 0 109 50" version="1.1" xmlns="http://www.w3.org/2000/svg" xmlns:xlink="http://www.w3.org/1999/xlink">
    <title>fWalletLogo.b119de84</title>
    <g id="Page-1" stroke="none" stroke-width="1" fill="none" fill-rule="evenodd">
        <g id="fWalletLogo.b119de84" transform="translate(0.000000, -0.000000)" fill="#FFFFFF">
            <path d="M5.17377,6.99544025 L17.6063,0.47896125 C18.8247,-0.15965375 20.6786,-0.15965375 21.897,0.47896125 L34.3295,6.99544025 C35.0633,7.38005025 35.4663,7.95315025 35.5385,8.54480025 L35.5503,8.54480025 L35.5503,8.73725025 L35.5503,8.74074025 L35.5503,24.6875002 L35.5503,24.6910002 L35.5503,41.2998002 L35.5499,41.2998002 C35.5342,41.9453003 35.1274,42.5863003 34.3295,43.0046003 L21.897,49.5210003 C20.6786,50.1597002 18.8247,50.1597002 17.6063,49.5210003 L5.17377,43.0046003 C4.37923,42.5881002 3.99792,41.9425003 3.97903,41.2998002 C3.97707,41.2333002 3.97692,41.1786003 3.97903,41.1336003 L3.97903,8.76535025 C3.97716,8.71948025 3.97715,8.67375025 3.97903,8.62821025 L3.97903,8.54480025 L3.98459,8.54480025 C4.03981,7.94664025 4.42451,7.38816025 5.17377,6.99544025 Z M5.93593,10.8820002 L5.93593,22.5462002 L17.0628,16.7141002 L5.93593,10.8820002 Z M5.93593,26.8323002 L5.93593,41.2355003 L17.6063,47.3200002 C18.3092,47.6927003 19.0406,48.0556002 19.7516,48.0580119 C20.4064,48.0602003 21.0432,47.7503002 21.6869,47.4371003 L21.8113,47.3767002 L33.5934,41.1830002 L33.5934,26.8186002 L21.897,32.9493002 C20.6786,33.5879002 18.8247,33.5879002 17.6063,32.9493002 L5.93593,26.8323002 Z M22.4405,16.7141003 L33.5934,10.8684003 L33.5934,22.5599002 L22.4405,16.7141003 Z M33.4156,8.71264025 L20.983,2.19616025 C20.3365,1.85728025 19.1668,1.85728025 18.5202,2.19616025 L6.08769,8.71264025 C6.07465,8.71948025 6.06221,8.72625025 6.05036,8.73293025 L6.03984,8.73900025 L6.05936,8.75009025 L6.08769,8.76535025 L18.5202,15.2818002 C19.1668,15.6207002 20.3365,15.6207002 20.983,15.2818002 L33.4156,8.76535025 C33.4243,8.76076025 33.4328,8.75619025 33.4411,8.75166025 L33.4529,8.74506025 L33.4634,8.73900025 L33.4439,8.72791025 L33.4156,8.71264025 Z M51.7763,32.4219003 L51.7763,24.1016003 L54.087,24.1016003 L54.087,22.5781002 L51.7763,22.5781002 L51.7763,21.4844003 C51.7763,20.2474002 52.3181,19.6289003 53.4016,19.6289003 C53.7149,19.6289003 54.0478,19.6810003 54.4003,19.7852002 L54.4003,18.7078002 L59.2281,32.4219003 L60.9122,32.4219003 L64.6915,21.6797002 L68.4512,32.4219003 L70.1353,32.4219003 L75.0503,18.5156002 L73.0725,18.5156002 L69.2737,29.6289003 L65.4748,18.5352002 L63.9865,18.5156002 L60.1289,29.5703002 L56.3888,18.5156002 L54.4003,18.5156002 L54.4003,18.1641003 C53.9695,18.0339002 53.493,17.9688003 52.9708,17.9688003 C51.9656,17.9688003 51.1856,18.2552002 50.6308,18.8281002 C50.076,19.4010002 49.7986,20.2344003 49.7986,21.3281002 L49.7986,22.5781002 L47.8991,22.5781002 L47.8991,24.1016003 L49.7986,24.1016003 L49.7986,32.4219003 L51.7763,32.4219003 Z M54.4003,18.5156002 L54.3327,18.5156002 L54.4003,18.7078002 L54.4003,18.5156002 Z M80.8279,32.0898002 C80.26,32.4023002 79.5975,32.5586002 78.8403,32.5586002 C77.9656,32.5586002 77.1987,32.3503002 76.5394,31.9336002 C75.8802,31.5169002 75.3678,30.9277003 75.0023,30.1660002 C74.6367,29.4043002 74.454,28.5156002 74.454,27.5000002 C74.454,26.4844003 74.64,25.5859002 75.012,24.8047002 C75.3841,24.0234002 75.903,23.4180002 76.5688,22.9883002 C77.2346,22.5586002 77.9918,22.3438003 78.8403,22.3438003 C79.5975,22.3438003 80.2567,22.5033002 80.8181,22.8223002 C81.3794,23.1413003 81.8102,23.5938003 82.1105,24.1797002 L82.1105,22.5781002 L84.0687,22.5781002 L84.0687,32.4219003 L82.1105,32.4219003 L82.1105,30.7422002 C81.8233,31.3281002 81.3957,31.7773002 80.8279,32.0898002 Z M79.3103,30.9961002 C78.4095,30.9961002 77.7078,30.6901002 77.2052,30.0781002 C76.7026,29.4661002 76.4513,28.6068002 76.4513,27.5000002 C76.4513,26.3802002 76.7026,25.5046002 77.2052,24.8730002 C77.7078,24.2415002 78.403,23.9258002 79.2907,23.9258002 C80.1915,23.9258002 80.8866,24.2318002 81.3762,24.8438002 C81.8657,25.4557002 82.1105,26.3281002 82.1105,27.4609002 C82.1105,28.5807002 81.8657,29.4499002 81.3762,30.0684002 C80.8866,30.6868002 80.198,30.9961002 79.3103,30.9961002 Z M88.0349,18.0469003 L88.0349,32.4219003 L86.0767,32.4219003 L86.0767,18.0469003 L88.0349,18.0469003 Z M92.0011,32.4219003 L92.0011,18.0469003 L90.0429,18.0469003 L90.0429,32.4219003 L92.0011,32.4219003 Z M100.559,32.2168002 C99.8739,32.4447002 99.1853,32.5586002 98.4934,32.5586002 C96.9138,32.5586002 95.6736,32.1061002 94.7729,31.2012002 C93.8721,30.2962002 93.4217,29.0560003 93.4217,27.4805002 C93.4217,26.4779003 93.6208,25.5859002 94.019,24.8047002 C94.4171,24.0234002 94.9752,23.4180002 95.6932,22.9883002 C96.4112,22.5586002 97.2271,22.3438003 98.1409,22.3438003 C99.4725,22.3438003 100.52,22.7734002 101.284,23.6328002 C102.048,24.4922002 102.429,25.6836002 102.429,27.2070003 L102.429,27.5391003 L95.3799,27.5391003 C95.4452,29.8438003 96.4961,30.9961002 98.5326,30.9961002 C99.6683,30.9961002 100.706,30.6250002 101.646,29.8828002 L102.253,31.2891003 C101.809,31.6797002 101.245,31.9889003 100.559,32.2168002 Z M100.687,26.3672002 L95.4582,26.3672002 C95.5888,25.5469003 95.889,24.9154003 96.359,24.4727002 C96.829,24.0299003 97.436,23.8086002 98.1801,23.8086002 C98.9112,23.8086002 99.4921,24.0267003 99.9229,24.4629003 C100.354,24.8991003 100.608,25.5339002 100.687,26.3672002 Z M108.98,32.3438003 C108.55,32.4870003 108.06,32.5586002 107.512,32.5586002 C106.494,32.5586002 105.704,32.2721003 105.142,31.6992003 C104.581,31.1263002 104.3,30.2930002 104.3,29.1992003 L104.3,24.1016003 L102.381,24.1016003 L102.381,22.5781002 L104.3,22.5781002 L104.3,20.1172002 L106.278,19.4336002 L106.278,22.5781002 L109,22.5781002 L109,24.1016003 L106.278,24.1016003 L106.278,29.0430002 C106.278,29.7201002 106.425,30.1986002 106.719,30.4785002 C107.012,30.7585003 107.42,30.8984002 107.943,30.8984002 C108.282,30.8984002 108.628,30.8464002 108.98,30.7422002 L108.98,32.3438003 Z M20.983,18.1464003 L33.4156,24.6629003 L33.4439,24.6782003 L33.4634,24.6893003 L33.4529,24.6953003 L33.437,24.7042003 L33.4156,24.7156003 L20.983,31.2321003 C20.9056,31.2727003 20.8207,31.3084003 20.7301,31.3393003 L20.7301,18.0393003 C20.8207,18.0701003 20.9056,18.1059003 20.983,18.1464003 Z M18.7732,18.0393003 L18.7732,31.3393003 C18.6826,31.3084003 18.5976,31.2727003 18.5202,31.2321003 L6.08769,24.7156003 L6.05936,24.7004003 L6.03984,24.6893003 L6.05036,24.6832003 C6.06221,24.6765003 6.07465,24.6698003 6.08769,24.6629003 L18.5202,18.1464003 C18.5976,18.1059003 18.6826,18.0701003 18.7732,18.0393003 Z M35.4305,2.91076025 L34.4177,4.57241025 L35.1239,4.99532025 L35.3538,5.13509025 C35.5488,5.25487025 35.709,5.35681025 35.8545,5.45411025 L35.8923,5.47955025 C36.555,5.92743025 36.9179,6.29551025 37.1598,6.77716025 C37.4516,7.35827025 37.5985,8.18312025 37.5985,9.43812025 L39.5554,9.43812025 L39.5552,9.35082025 C39.5413,6.48505025 38.837,5.10743025 36.9484,3.84387025 C36.7717,3.72567025 36.5823,3.60540025 36.3538,3.46541025 L36.2209,3.38447025 L35.4305,2.91076025 Z M5.13774,45.4535002 L4.12491,47.1151002 L3.33454,46.6414002 L3.20169,46.5605002 C2.97316,46.4205002 2.78375,46.3002002 2.60707,46.1820003 C0.71846,44.9185003 0.0141085,43.5408002 0.000210285,40.6751002 L0,40.5878003 L1.9569,40.5878003 C1.9569,41.8428002 2.10387,42.6676002 2.3957,43.2487002 C2.63757,43.7304003 3.00049,44.0985003 3.66315,44.5463003 L3.70098,44.5718003 C3.84641,44.6691002 4.00661,44.7710003 4.20161,44.8908002 L4.43158,45.0306002 L5.13774,45.4535002 Z" id="Shape"></path>
            <g id="beta" transform="translate(49.162000, 36.696000)" fill-rule="nonzero">
                <path d="M3.276,3.122 C3.892,3.122 4.438,3.27133333 4.914,3.57 C5.39,3.86866667 5.75633333,4.28866667 6.013,4.83 C6.26966667,5.37133333 6.398,6.006 6.398,6.734 C6.398,7.462 6.26733333,8.10366667 6.006,8.659 C5.74466667,9.21433333 5.37833333,9.64366667 4.907,9.947 C4.43566667,10.2503333 3.892,10.402 3.276,10.402 C2.69733333,10.402 2.20033333,10.276 1.785,10.024 C1.36966667,9.772 1.05933333,9.408 0.854,8.932 L0.854,10.304 L-7.10542736e-15,10.304 L-7.10542736e-15,0 L0.84,0 L0.84,4.606 C1.04533333,4.12066667 1.358,3.752 1.778,3.5 C2.198,3.248 2.69733333,3.122 3.276,3.122 Z M3.178,9.646 C3.906,9.646 4.47533333,9.38933333 4.886,8.876 C5.29666667,8.36266667 5.502,7.64866667 5.502,6.734 C5.502,5.82866667 5.29666667,5.124 4.886,4.62 C4.47533333,4.116 3.90133333,3.864 3.164,3.864 C2.42666667,3.864 1.85733333,4.116 1.456,4.62 C1.05466667,5.124 0.854,5.838 0.854,6.762 C0.854,7.686 1.05466667,8.39766667 1.456,8.897 C1.85733333,9.39633333 2.43133333,9.646 3.178,9.646 Z" id="Shape"></path>
                <path d="M8.722,6.692 L8.722,6.734 C8.722,7.67666667 8.939,8.39766667 9.373,8.897 C9.807,9.39633333 10.4393333,9.646 11.27,9.646 C12.11,9.646 12.88,9.35666667 13.58,8.778 L13.916,9.45 C13.608,9.73933333 13.216,9.97033333 12.74,10.143 C12.264,10.3156667 11.774,10.402 11.27,10.402 C10.206,10.402 9.366,10.08 8.75,9.436 C8.134,8.792 7.826,7.90533333 7.826,6.776 C7.826,6.05733333 7.96366667,5.42033333 8.239,4.865 C8.51433333,4.30966667 8.89933333,3.88033333 9.394,3.577 C9.88866667,3.27366667 10.458,3.122 11.102,3.122 C12.026,3.122 12.747,3.42066667 13.265,4.018 C13.783,4.61533333 14.042,5.446 14.042,6.51 L14.042,6.692 L8.722,6.692 Z M11.102,3.822 C10.458,3.822 9.93533333,4.01566667 9.534,4.403 C9.13266667,4.79033333 8.88066667,5.334 8.778,6.034 L13.23,6.034 C13.174,5.31533333 12.964,4.767 12.6,4.389 C12.236,4.011 11.7366667,3.822 11.102,3.822 Z" id="Shape"></path>
                <path d="M17.052,3.976 L17.052,8.148 C17.052,8.708 17.1593333,9.09533333 17.374,9.31 C17.5886667,9.52466667 17.906,9.632 18.326,9.632 C18.5873333,9.632 18.8393333,9.59 19.082,9.506 L19.082,10.276 C18.7833333,10.3506667 18.48,10.388 18.172,10.388 C17.556,10.388 17.073,10.2153333 16.723,9.87 C16.373,9.52466667 16.198,9.00666667 16.198,8.316 L16.198,3.976 L14.812,3.976 L14.812,3.29 L16.198,3.29 L16.198,1.428 L17.052,1.106 L17.052,3.29 L19.124,3.29 L19.124,3.976 L17.052,3.976 Z" id="Path"></path>
                <path d="M26.53,3.29 L26.53,10.304 L25.676,10.304 L25.676,8.96 C25.4706667,9.42666667 25.1603333,9.78366667 24.745,10.031 C24.3296667,10.2783333 23.8326667,10.402 23.254,10.402 C22.6286667,10.402 22.0803333,10.255 21.609,9.961 C21.1376667,9.667 20.7736667,9.247 20.517,8.701 C20.2603333,8.155 20.132,7.518 20.132,6.79 C20.132,6.062 20.2626667,5.42033333 20.524,4.865 C20.7853333,4.30966667 21.1516667,3.88033333 21.623,3.577 C22.0943333,3.27366667 22.638,3.122 23.254,3.122 C23.8233333,3.122 24.3156667,3.24333333 24.731,3.486 C25.1463333,3.72866667 25.4613333,4.08333333 25.676,4.55 L25.676,3.29 L26.53,3.29 Z M23.38,9.646 C24.108,9.646 24.6726667,9.394 25.074,8.89 C25.4753333,8.386 25.676,7.67666667 25.676,6.762 C25.676,5.838 25.4753333,5.124 25.074,4.62 C24.6726667,4.116 24.1033333,3.864 23.366,3.864 C22.6286667,3.864 22.0546667,4.123 21.644,4.641 C21.2333333,5.159 21.028,5.87533333 21.028,6.79 C21.028,7.69533333 21.2333333,8.39766667 21.644,8.897 C22.0546667,9.39633333 22.6333333,9.646 23.38,9.646 Z" id="Shape"></path>
            </g>
        </g>
    </g>
</svg>