<svg width="109" height="50" viewBox="0 0 109 50" fill="none" xmlns="http://www.w3.org/2000/svg">
<path fill-rule="evenodd" clip-rule="evenodd" d="M5.17377 6.99544L17.6063 0.478961C18.8247 -0.159654 20.6786 -0.159654 21.897 0.478961L34.3295 6.99544C35.0633 7.38005 35.4663 7.95315 35.5385 8.5448H35.5503V8.73725V8.74074V24.6875V24.691V41.2998H35.5499C35.5342 41.9453 35.1274 42.5863 34.3295 43.0046L21.897 49.521C20.6786 50.1597 18.8247 50.1597 17.6063 49.521L5.17377 43.0046C4.37923 42.5881 3.99792 41.9425 3.97903 41.2998C3.97707 41.2333 3.97692 41.1786 3.97903 41.1336V8.76535C3.97716 8.71948 3.97715 8.67375 3.97903 8.62821V8.5448H3.98459C4.03981 7.94664 4.42451 7.38816 5.17377 6.99544ZM5.93593 10.882V22.5462L17.0628 16.7141L5.93593 10.882ZM5.93593 26.8323V41.2355L17.6063 47.32C18.3092 47.6927 19.0406 48.0556 19.7516 48.058C20.4064 48.0602 21.0432 47.7503 21.6869 47.4371L21.8113 47.3767L33.5934 41.183V26.8186L21.897 32.9493C20.6786 33.5879 18.8247 33.5879 17.6063 32.9493L5.93593 26.8323ZM22.4405 16.7141L33.5934 10.8684V22.5599L22.4405 16.7141ZM33.4156 8.71264L20.983 2.19616C20.3365 1.85728 19.1668 1.85728 18.5202 2.19616L6.08769 8.71264C6.07465 8.71948 6.06221 8.72625 6.05036 8.73293L6.03984 8.739L6.05936 8.75009L6.08769 8.76535L18.5202 15.2818C19.1668 15.6207 20.3365 15.6207 20.983 15.2818L33.4156 8.76535C33.4243 8.76076 33.4328 8.75619 33.4411 8.75166L33.4529 8.74506L33.4634 8.739L33.4439 8.72791L33.4156 8.71264ZM51.7763 32.4219V24.1016H54.087V22.5781H51.7763V21.4844C51.7763 20.2474 52.3181 19.6289 53.4016 19.6289C53.7149 19.6289 54.0478 19.681 54.4003 19.7852V18.7078L59.2281 32.4219H60.9122L64.6915 21.6797L68.4512 32.4219H70.1353L75.0503 18.5156H73.0725L69.2737 29.6289L65.4748 18.5352L63.9865 18.5156L60.1289 29.5703L56.3888 18.5156H54.4003V18.1641C53.9695 18.0339 53.493 17.9688 52.9708 17.9688C51.9656 17.9688 51.1856 18.2552 50.6308 18.8281C50.076 19.401 49.7986 20.2344 49.7986 21.3281V22.5781H47.8991V24.1016H49.7986V32.4219H51.7763ZM54.4003 18.5156H54.3327L54.4003 18.7078V18.5156ZM80.8279 32.0898C80.26 32.4023 79.5975 32.5586 78.8403 32.5586C77.9656 32.5586 77.1987 32.3503 76.5394 31.9336C75.8802 31.5169 75.3678 30.9277 75.0023 30.166C74.6367 29.4043 74.454 28.5156 74.454 27.5C74.454 26.4844 74.64 25.5859 75.012 24.8047C75.3841 24.0234 75.903 23.418 76.5688 22.9883C77.2346 22.5586 77.9918 22.3438 78.8403 22.3438C79.5975 22.3438 80.2567 22.5033 80.8181 22.8223C81.3794 23.1413 81.8102 23.5938 82.1105 24.1797V22.5781H84.0687V32.4219H82.1105V30.7422C81.8233 31.3281 81.3957 31.7773 80.8279 32.0898ZM79.3103 30.9961C78.4095 30.9961 77.7078 30.6901 77.2052 30.0781C76.7026 29.4661 76.4513 28.6068 76.4513 27.5C76.4513 26.3802 76.7026 25.5046 77.2052 24.873C77.7078 24.2415 78.403 23.9258 79.2907 23.9258C80.1915 23.9258 80.8866 24.2318 81.3762 24.8438C81.8657 25.4557 82.1105 26.3281 82.1105 27.4609C82.1105 28.5807 81.8657 29.4499 81.3762 30.0684C80.8866 30.6868 80.198 30.9961 79.3103 30.9961ZM88.0349 18.0469V32.4219H86.0767V18.0469H88.0349ZM92.0011 32.4219V18.0469H90.0429V32.4219H92.0011ZM100.559 32.2168C99.8739 32.4447 99.1853 32.5586 98.4934 32.5586C96.9138 32.5586 95.6736 32.1061 94.7729 31.2012C93.8721 30.2962 93.4217 29.056 93.4217 27.4805C93.4217 26.4779 93.6208 25.5859 94.019 24.8047C94.4171 24.0234 94.9752 23.418 95.6932 22.9883C96.4112 22.5586 97.2271 22.3438 98.1409 22.3438C99.4725 22.3438 100.52 22.7734 101.284 23.6328C102.048 24.4922 102.429 25.6836 102.429 27.207V27.5391H95.3799C95.4452 29.8438 96.4961 30.9961 98.5326 30.9961C99.6683 30.9961 100.706 30.625 101.646 29.8828L102.253 31.2891C101.809 31.6797 101.245 31.9889 100.559 32.2168ZM100.687 26.3672H95.4582C95.5888 25.5469 95.889 24.9154 96.359 24.4727C96.829 24.0299 97.436 23.8086 98.1801 23.8086C98.9112 23.8086 99.4921 24.0267 99.9229 24.4629C100.354 24.8991 100.608 25.5339 100.687 26.3672ZM108.98 32.3438C108.55 32.487 108.06 32.5586 107.512 32.5586C106.494 32.5586 105.704 32.2721 105.142 31.6992C104.581 31.1263 104.3 30.293 104.3 29.1992V24.1016H102.381V22.5781H104.3V20.1172L106.278 19.4336V22.5781H109V24.1016H106.278V29.043C106.278 29.7201 106.425 30.1986 106.719 30.4785C107.012 30.7585 107.42 30.8984 107.943 30.8984C108.282 30.8984 108.628 30.8464 108.98 30.7422V32.3438ZM20.983 18.1464L33.4156 24.6629L33.4439 24.6782L33.4634 24.6893L33.4529 24.6953L33.437 24.7042L33.4156 24.7156L20.983 31.2321C20.9056 31.2727 20.8207 31.3084 20.7301 31.3393V18.0393C20.8207 18.0701 20.9056 18.1059 20.983 18.1464ZM18.7732 18.0393V31.3393C18.6826 31.3084 18.5976 31.2727 18.5202 31.2321L6.08769 24.7156L6.05936 24.7004L6.03984 24.6893L6.05036 24.6832C6.06221 24.6765 6.07465 24.6698 6.08769 24.6629L18.5202 18.1464C18.5976 18.1059 18.6826 18.0701 18.7732 18.0393ZM35.4305 2.91076L34.4177 4.57241L35.1239 4.99532L35.3538 5.13509C35.5488 5.25487 35.709 5.35681 35.8545 5.45411L35.8923 5.47955C36.555 5.92743 36.9179 6.29551 37.1598 6.77716C37.4516 7.35827 37.5985 8.18312 37.5985 9.43812H39.5554L39.5552 9.35082C39.5413 6.48505 38.837 5.10743 36.9484 3.84387C36.7717 3.72567 36.5823 3.6054 36.3538 3.46541L36.2209 3.38447L35.4305 2.91076ZM5.13774 45.4535L4.12491 47.1151L3.33454 46.6414L3.20169 46.5605C2.97316 46.4205 2.78375 46.3002 2.60707 46.182C0.71846 44.9185 0.0141085 43.5408 0.000210285 40.6751L0 40.5878H1.9569C1.9569 41.8428 2.10387 42.6676 2.3957 43.2487C2.63757 43.7304 3.00049 44.0985 3.66315 44.5463L3.70098 44.5718C3.84641 44.6691 4.00661 44.771 4.20161 44.8908L4.43158 45.0306L5.13774 45.4535Z" fill="white"/>
</svg>
