<svg width="100" height="100" viewBox="0 0 100 100" fill="none" xmlns="http://www.w3.org/2000/svg">
<circle opacity="0.35" cx="50" cy="50" r="50" fill="transparent"/>
<g clip-path="url(#clip0)">
<path d="M62.9718 38.213H73.0003L61.625 27V36.8654C61.625 37.6085 62.2291 38.213 62.9718 38.213Z" fill="grey"/>
<path d="M58.9309 36.8654V27H33.7246C32.9803 27 32.377 27.6034 32.377 28.3477V37.4225H47.4305C51.5112 37.4225 54.8312 40.7424 54.8312 44.8232V60.4641C54.8312 64.5448 51.5112 67.8648 47.4305 67.8648H32.377V71.6523C32.377 72.3966 32.9803 73 33.7246 73H71.6539C72.3981 73 73.0015 72.3966 73.0015 71.6523V40.9084H62.973C60.7441 40.9084 58.9309 39.0947 58.9309 36.8654Z" fill="grey"/>
<path d="M52.2243 60.4644V44.8236C52.2243 42.1752 50.0774 40.0283 47.429 40.0283H31.7952C29.1469 40.0283 27 42.1752 27 44.8236V60.4644C27 63.1128 29.1469 65.2597 31.7952 65.2597H47.429C50.0774 65.2597 52.2243 63.1128 52.2243 60.4644ZM37.8697 56.7432C38.3961 57.2695 38.3961 58.1228 37.8697 58.6491C37.3435 59.1754 36.4902 59.1754 35.9639 58.6491L30.9117 53.5969C30.3854 53.0706 30.3854 52.2173 30.9117 51.691L35.9639 46.6388C36.4901 46.1125 37.3434 46.1125 37.8697 46.6388C38.3961 47.1651 38.3961 48.0184 37.8697 48.5447L33.7705 52.6439L37.8697 56.7432ZM42.3074 59.0438C41.9625 59.0438 41.6176 58.9123 41.3545 58.6492C40.8282 58.1229 40.8282 57.2696 41.3545 56.7433L45.4537 52.6441L41.3545 48.5449C40.8282 48.0186 40.8282 47.1653 41.3545 46.639C41.8807 46.1127 42.7341 46.1127 43.2604 46.639L48.3126 51.6912C48.8389 52.2175 48.8389 53.0708 48.3126 53.5971L43.2604 58.6492C42.9972 58.9122 42.6523 59.0438 42.3074 59.0438Z" fill="darkgrey"/>
</g>
<defs>
<clipPath id="clip0">
<rect width="46" height="46" fill="white" transform="translate(27 27)"/>
</clipPath>
</defs>
</svg>
