<svg width="100" height="100" viewBox="0 0 100 100" fill="none" xmlns="http://www.w3.org/2000/svg">
<circle opacity="0.35" cx="50" cy="50" r="50" fill="#202F49"/>
<path d="M74 37.3438V30.3125C74 27.9863 72.1075 26.0938 69.7812 26.0938H30.2188C27.8925 26.0938 26 27.9863 26 30.3125V37.3438H74ZM58.4375 31.7188H66.875C67.6516 31.7188 68.2812 32.3484 68.2812 33.125C68.2812 33.9016 67.6516 34.5312 66.875 34.5312H58.4375C57.6609 34.5312 57.0312 33.9016 57.0312 33.125C57.0312 32.3484 57.6609 31.7188 58.4375 31.7188ZM44.375 31.7188C45.1516 31.7188 45.7812 32.3484 45.7812 33.125C45.7812 33.9016 45.1516 34.5312 44.375 34.5312C43.5984 34.5312 42.9688 33.9016 42.9688 33.125C42.9688 32.3484 43.5984 31.7188 44.375 31.7188ZM38.75 31.7188C39.5266 31.7188 40.1562 32.3484 40.1562 33.125C40.1562 33.9016 39.5266 34.5312 38.75 34.5312C37.9734 34.5312 37.3438 33.9016 37.3438 33.125C37.3438 32.3484 37.9734 31.7188 38.75 31.7188ZM33.125 31.7188C33.9016 31.7188 34.5312 32.3484 34.5312 33.125C34.5312 33.9016 33.9016 34.5312 33.125 34.5312C32.3484 34.5312 31.7188 33.9016 31.7188 33.125C31.7188 32.3484 32.3484 31.7188 33.125 31.7188Z" fill="#1969FF"/>
<path d="M26 40.1562V69.6875C26 72.0137 27.8925 73.9062 30.2188 73.9062H69.7812C72.1075 73.9062 74 72.0137 74 69.6875V40.1562H26ZM42.4409 60.1519C43.0475 60.6371 43.1458 61.522 42.6606 62.1284C42.1755 62.7348 41.2904 62.8333 40.6841 62.348L33.6528 56.723C32.9498 56.1608 32.9493 55.0895 33.6528 54.5268L40.6841 48.9018C41.2903 48.4167 42.1753 48.5149 42.6606 49.1214C43.1458 49.7278 43.0475 50.6128 42.4409 51.0979L36.7824 55.625L42.4409 60.1519ZM55.5113 46.3352L47.0738 66.0227C46.7679 66.7364 45.9414 67.0674 45.2273 66.7613C44.5135 66.4554 44.1827 65.6286 44.4887 64.9148L52.9262 45.2273C53.2322 44.5135 54.0589 44.1828 54.7727 44.4887C55.4865 44.7946 55.8173 45.6213 55.5113 46.3352ZM66.3472 56.7231L59.3159 62.3481C58.7105 62.8326 57.8253 62.7358 57.3394 62.1285C56.8542 61.5221 56.9525 60.6371 57.5591 60.152L63.2176 55.625L57.5591 51.0981C56.9525 50.6129 56.8542 49.728 57.3394 49.1216C57.8245 48.5151 58.7095 48.4167 59.3159 48.902L66.3472 54.527C67.0502 55.0892 67.0507 56.1604 66.3472 56.7231Z" fill="#19E1FF"/>
</svg>
