<svg width="100" height="100" viewBox="0 0 100 100" fill="none" xmlns="http://www.w3.org/2000/svg">
<circle opacity="0.35" cx="50" cy="50" r="50" fill="#202F49"/>
<path d="M44.6738 28H65.0024C68.8665 28 71.9989 31.1324 71.9989 34.9965V55.2474H44.6738V28Z" fill="#1969FF"/>
<path d="M28.001 34.9965C28.001 31.1324 31.1334 28 34.9974 28H38.4957V38.4947H28.001V34.9965Z" fill="#19E1FF"/>
<path d="M72 65.0035C72 68.8676 68.8676 72 65.0035 72L61.5053 72L61.5053 61.5053L72 61.5053L72 65.0035Z" fill="#19E1FF"/>
<path d="M34.9965 72C31.1324 72 28 68.8676 28 65.0035L28 61.5053L38.4947 61.5053L38.4947 72L34.9965 72Z" fill="#19E1FF"/>
<path d="M44.7539 72L44.7539 61.5053L55.2486 61.5053L55.2486 72L44.7539 72Z" fill="#19E1FF"/>
<path d="M28 55.248L28 44.7533L38.4947 44.7533L38.4947 55.248L28 55.248Z" fill="#19E1FF"/>
</svg>
