<svg width="100" height="100" viewBox="0 0 100 100" fill="none" xmlns="http://www.w3.org/2000/svg">
<circle opacity="0.35" cx="50" cy="50" r="50" fill="#202F49"/>
<rect x="29" y="29" width="6" height="6" fill="#19E1FF"/>
<rect x="29" y="41" width="6" height="6" fill="#1969FF"/>
<rect x="29" y="53" width="6" height="6" fill="#19E1FF"/>
<rect x="29" y="65" width="6" height="6" fill="#1969FF"/>
<rect x="41" y="29" width="6" height="6" fill="#1969FF"/>
<rect x="41" y="41" width="6" height="6" fill="#19E1FF"/>
<rect x="41" y="53" width="6" height="6" fill="#1969FF"/>
<rect x="41" y="65" width="6" height="6" fill="#19E1FF"/>
<rect x="53" y="29" width="6" height="6" fill="#19E1FF"/>
<rect x="53" y="41" width="6" height="6" fill="#1969FF"/>
<rect x="53" y="53" width="6" height="6" fill="#19E1FF"/>
<rect x="53" y="65" width="6" height="6" fill="#1969FF"/>
<rect x="65" y="29" width="6" height="6" fill="#1969FF"/>
<rect x="65" y="41" width="6" height="6" fill="#19E1FF"/>
<rect x="65" y="53" width="6" height="6" fill="#1969FF"/>
<rect x="65" y="65" width="6" height="6" fill="#19E1FF"/>
</svg>
