<svg width="100" height="100" viewBox="0 0 100 100" fill="none" xmlns="http://www.w3.org/2000/svg">
<circle opacity="0.35" cx="50" cy="50" r="50" fill="#202F49"/>
<path d="M66.655 42.5006H63.7703V38.6116C63.7703 31.1061 57.7314 25 50.3083 25C42.8852 25 36.8463 31.1061 36.8463 38.6116V42.5006H33.9616C33.4301 42.5006 33 42.9355 33 43.4729V67.7794C33 69.9242 34.725 71.6683 36.8463 71.6683H63.7704C65.8916 71.6683 67.6166 69.9242 67.6166 67.7793V43.4729C67.6166 42.9355 67.1865 42.5006 66.655 42.5006ZM53.1874 62.8107C53.2175 63.0851 53.1302 63.3604 52.948 63.5665C52.7658 63.7725 52.5048 63.8903 52.2315 63.8903H48.3852C48.112 63.8903 47.8509 63.7725 47.6687 63.5665C47.4865 63.3605 47.3992 63.0852 47.4293 62.8107L48.0359 57.2953C47.0508 56.5708 46.4621 55.4248 46.4621 54.1677C46.4621 52.0229 48.187 50.2786 50.3084 50.2786C52.4297 50.2786 54.1547 52.0228 54.1547 54.1677C54.1547 55.4248 53.566 56.5708 52.5809 57.2953L53.1874 62.8107ZM58.0009 42.5006H42.6158V38.6116C42.6158 34.3228 46.0667 30.8335 50.3083 30.8335C54.5499 30.8335 58.0009 34.3228 58.0009 38.6116V42.5006Z" fill="#1969FF"/>
<path d="M70.8247 36.532C67.9248 33.6 63.2066 33.6 60.3068 36.5321C58.326 38.5349 57.638 41.4863 58.4957 44.1641L50.12 52.6329C49.9932 52.7611 49.9219 52.9346 49.9219 53.1162V56.9836C49.9219 57.3615 50.2243 57.6672 50.598 57.6672H54.4229C54.6024 57.6672 54.7741 57.5951 54.9009 57.4669L55.8569 56.4995C56.0028 56.352 56.0741 56.1451 56.0504 55.9374L55.9315 54.8987L57.355 54.7631C57.6786 54.7324 57.9341 54.474 57.9645 54.1469L58.0985 52.7076L59.1259 52.8284C59.3167 52.8544 59.5088 52.7896 59.6534 52.6602C59.7974 52.53 59.8799 52.3444 59.8799 52.1495V50.8766H61.1159C61.2955 50.8766 61.4672 50.8045 61.5939 50.6763L63.3278 48.9464C65.9754 49.8143 68.8439 49.171 70.8247 47.1669C73.7246 44.2348 73.7246 39.4641 70.8247 36.532ZM68.912 41.3661C68.121 42.1659 66.8348 42.1659 66.0438 41.3661C65.2528 40.5664 65.2528 39.2659 66.0438 38.4661C66.8348 37.6663 68.121 37.6663 68.912 38.4661C69.703 39.2659 69.7029 40.5664 68.912 41.3661Z" fill="#19E1FF"/>
</svg>
